<?xml version="1.0" encoding="UTF-8"?>
<svg xmlns="http://www.w3.org/2000/svg" width="240" height="240" viewBox="0 0 240 240" role="img" aria-label="Center left-turn lane with cars">
<defs>
  <pattern id="asphaltCenter" x="0" y="0" width="4" height="4" patternUnits="userSpaceOnUse">
    <rect width="4" height="4" fill="#2d2d2d"/>
    <circle cx="1" cy="1" r="0.3" fill="#3a3a3a"/>
    <circle cx="3" cy="2" r="0.4" fill="#252525"/>
    <circle cx="2" cy="3.5" r="0.3" fill="#323232"/>
  </pattern>
  <linearGradient id="yellowGradCenter" x1="0%" y1="0%" x2="100%" y2="0%">
    <stop offset="0%" style="stop-color:#ffed4e;stop-opacity:1" />
    <stop offset="50%" style="stop-color:#ffd700;stop-opacity:1" />
    <stop offset="100%" style="stop-color:#e6c300;stop-opacity:1" />
  </linearGradient>
  <linearGradient id="whiteGradCenter" x1="0%" y1="0%" x2="100%" y2="0%">
    <stop offset="0%" style="stop-color:#ffffff;stop-opacity:1" />
    <stop offset="50%" style="stop-color:#f5f5f5;stop-opacity:1" />
    <stop offset="100%" style="stop-color:#e8e8e8;stop-opacity:1" />
  </linearGradient>
</defs>
<!-- Asphalt road surface (3 lanes) -->
<rect width="240" height="240" fill="url(#asphaltCenter)"/>
<!-- White edge lines -->
<rect x="10" y="0" width="3" height="240" fill="#fff" opacity="0.6"/>
<rect x="227" y="0" width="3" height="240" fill="#fff" opacity="0.6"/>

<!-- Center left-turn lane markings (solid yellow on outside, broken yellow on inside with arrows) -->
<!-- Left solid yellow line (outside of center lane) -->
<rect x="85" y="0" width="6" height="240" fill="url(#yellowGradCenter)"/>

<!-- Left broken yellow line (inside of center lane) -->
<rect x="100" y="15" width="6" height="25" fill="url(#yellowGradCenter)"/>
<rect x="100" y="55" width="6" height="25" fill="url(#yellowGradCenter)"/>
<rect x="100" y="95" width="6" height="25" fill="url(#yellowGradCenter)"/>
<rect x="100" y="135" width="6" height="25" fill="url(#yellowGradCenter)"/>
<rect x="100" y="175" width="6" height="25" fill="url(#yellowGradCenter)"/>
<rect x="100" y="215" width="6" height="25" fill="url(#yellowGradCenter)"/>

<!-- Right broken yellow line (inside of center lane) -->
<rect x="134" y="15" width="6" height="25" fill="url(#yellowGradCenter)"/>
<rect x="134" y="55" width="6" height="25" fill="url(#yellowGradCenter)"/>
<rect x="134" y="95" width="6" height="25" fill="url(#yellowGradCenter)"/>
<rect x="134" y="135" width="6" height="25" fill="url(#yellowGradCenter)"/>
<rect x="134" y="175" width="6" height="25" fill="url(#yellowGradCenter)"/>
<rect x="134" y="215" width="6" height="25" fill="url(#yellowGradCenter)"/>

<!-- Right solid yellow line (outside of center lane) -->
<rect x="149" y="0" width="6" height="240" fill="url(#yellowGradCenter)"/>

<!-- Left-turn arrows in center lane -->
<g transform="translate(109, 45)">
  <path d="M10 15 L10 0 L0 10 L10 20 L10 5 L20 5 L20 15 Z" fill="#fff" opacity="0.9"/>
</g>
<g transform="translate(109, 160)">
  <path d="M10 15 L10 0 L0 10 L10 20 L10 5 L20 5 L20 15 Z" fill="#fff" opacity="0.9"/>
</g>

<!-- Car in left lane going up -->
<g transform="translate(25, 180)">
  <rect x="0" y="0" width="35" height="55" rx="7" fill="#2563eb" stroke="#1e40af" stroke-width="2"/>
  <rect x="4" y="4" width="27" height="18" fill="#87ceeb" opacity="0.7"/>
  <circle cx="8" cy="45" r="5" fill="#1a1a1a"/>
  <circle cx="27" cy="45" r="5" fill="#1a1a1a"/>
  <circle cx="8" cy="13" r="5" fill="#1a1a1a"/>
  <circle cx="27" cy="13" r="5" fill="#1a1a1a"/>
</g>

<!-- Car in center turn lane preparing to turn left -->
<g transform="translate(105, 120)">
  <rect x="0" y="0" width="35" height="55" rx="7" fill="#f59e0b" stroke="#d97706" stroke-width="2"/>
  <rect x="4" y="4" width="27" height="18" fill="#87ceeb" opacity="0.7"/>
  <circle cx="8" cy="45" r="5" fill="#1a1a1a"/>
  <circle cx="27" cy="45" r="5" fill="#1a1a1a"/>
  <circle cx="8" cy="13" r="5" fill="#1a1a1a"/>
  <circle cx="27" cy="13" r="5" fill="#1a1a1a"/>
</g>

<!-- Car in right lane going up -->
<g transform="translate(178, 150)">
  <rect x="0" y="0" width="35" height="55" rx="7" fill="#16a34a" stroke="#15803d" stroke-width="2"/>
  <rect x="4" y="4" width="27" height="18" fill="#87ceeb" opacity="0.7"/>
  <circle cx="8" cy="45" r="5" fill="#1a1a1a"/>
  <circle cx="27" cy="45" r="5" fill="#1a1a1a"/>
  <circle cx="8" cy="13" r="5" fill="#1a1a1a"/>
  <circle cx="27" cy="13" r="5" fill="#1a1a1a"/>
</g>
</svg>
