<?xml version="1.0" encoding="UTF-8"?>
<svg xmlns="http://www.w3.org/2000/svg" width="160" height="200" viewBox="0 0 160 200" role="img" aria-label="Crosswalk marking with approaching car">
<defs>
  <pattern id="asphalt6" x="0" y="0" width="4" height="4" patternUnits="userSpaceOnUse">
    <rect width="4" height="4" fill="#2d2d2d"/>
    <circle cx="1" cy="1" r="0.3" fill="#3a3a3a"/>
    <circle cx="3" cy="2" r="0.4" fill="#252525"/>
    <circle cx="2" cy="3.5" r="0.3" fill="#323232"/>
  </pattern>
  <linearGradient id="whiteBar" x1="0%" y1="0%" x2="100%" y2="0%">
    <stop offset="0%" style="stop-color:#ffffff;stop-opacity:1" />
    <stop offset="50%" style="stop-color:#f5f5f5;stop-opacity:1" />
    <stop offset="100%" style="stop-color:#e8e8e8;stop-opacity:1" />
  </linearGradient>
</defs>
<!-- Asphalt surface -->
<rect width="160" height="200" fill="url(#asphalt6)"/>
<!-- Crosswalk stripes (horizontal across vertical road) -->
<rect x="10" y="70" width="140" height="12" fill="url(#whiteBar)"/>
<rect x="10" y="88" width="140" height="12" fill="url(#whiteBar)"/>
<rect x="10" y="106" width="140" height="12" fill="url(#whiteBar)"/>
<!-- Car approaching crosswalk (going up) -->
<g transform="translate(60, 140)">
  <rect x="0" y="0" width="40" height="60" rx="8" fill="#2563eb" stroke="#1e40af" stroke-width="2"/>
  <rect x="5" y="5" width="30" height="20" fill="#87ceeb" opacity="0.7"/>
  <circle cx="10" cy="50" r="6" fill="#1a1a1a"/>
  <circle cx="30" cy="50" r="6" fill="#1a1a1a"/>
  <circle cx="10" cy="15" r="6" fill="#1a1a1a"/>
  <circle cx="30" cy="15" r="6" fill="#1a1a1a"/>
</g>
<!-- Pedestrian silhouette on crosswalk -->
<g transform="translate(30, 85)">
  <circle cx="5" cy="5" r="4" fill="#fbbf24"/>
  <rect x="2" y="10" width="6" height="10" rx="2" fill="#fbbf24"/>
  <rect x="1" y="12" width="3" height="8" fill="#fbbf24"/>
  <rect x="6" y="12" width="3" height="8" fill="#fbbf24"/>
</g>
</svg>
