<?xml version="1.0" encoding="UTF-8"?>
<svg xmlns="http://www.w3.org/2000/svg" width="280" height="240" viewBox="0 0 280 240" role="img" aria-label="Four-lane divided highway with median">
<defs>
  <pattern id="asphaltDivided" x="0" y="0" width="4" height="4" patternUnits="userSpaceOnUse">
    <rect width="4" height="4" fill="#2d2d2d"/>
    <circle cx="1" cy="1" r="0.3" fill="#3a3a3a"/>
    <circle cx="3" cy="2" r="0.4" fill="#252525"/>
    <circle cx="2" cy="3.5" r="0.3" fill="#323232"/>
  </pattern>
  <linearGradient id="yellowGradDivided" x1="0%" y1="0%" x2="100%" y2="0%">
    <stop offset="0%" style="stop-color:#ffed4e;stop-opacity:1" />
    <stop offset="50%" style="stop-color:#ffd700;stop-opacity:1" />
    <stop offset="100%" style="stop-color:#e6c300;stop-opacity:1" />
  </linearGradient>
  <linearGradient id="whiteGradDivided" x1="0%" y1="0%" x2="100%" y2="0%">
    <stop offset="0%" style="stop-color:#ffffff;stop-opacity:1" />
    <stop offset="50%" style="stop-color:#f5f5f5;stop-opacity:1" />
    <stop offset="100%" style="stop-color:#e8e8e8;stop-opacity:1" />
  </linearGradient>
</defs>
<!-- Asphalt road surface -->
<rect width="280" height="240" fill="url(#asphaltDivided)"/>

<!-- Left (northbound) side - 2 lanes -->
<!-- Edge line -->
<rect x="10" y="0" width="3" height="240" fill="#fff" opacity="0.6"/>
<!-- Lane divider (broken white) -->
<rect x="63" y="10" width="6" height="30" fill="url(#whiteGradDivided)"/>
<rect x="63" y="50" width="6" height="30" fill="url(#whiteGradDivided)"/>
<rect x="63" y="90" width="6" height="30" fill="url(#whiteGradDivided)"/>
<rect x="63" y="130" width="6" height="30" fill="url(#whiteGradDivided)"/>
<rect x="63" y="170" width="6" height="30" fill="url(#whiteGradDivided)"/>
<rect x="63" y="210" width="6" height="30" fill="url(#whiteGradDivided)"/>

<!-- Median barrier/divider (grass or concrete) -->
<rect x="117" y="0" width="46" height="240" fill="#4a5f4a"/>
<!-- Double solid yellow on both sides of median -->
<rect x="113" y="0" width="4" height="240" fill="url(#yellowGradDivided)"/>
<rect x="163" y="0" width="4" height="240" fill="url(#yellowGradDivided)"/>

<!-- Right (southbound) side - 2 lanes -->
<!-- Lane divider (broken white) -->
<rect x="211" y="10" width="6" height="30" fill="url(#whiteGradDivided)"/>
<rect x="211" y="50" width="6" height="30" fill="url(#whiteGradDivided)"/>
<rect x="211" y="90" width="6" height="30" fill="url(#whiteGradDivided)"/>
<rect x="211" y="130" width="6" height="30" fill="url(#whiteGradDivided)"/>
<rect x="211" y="170" width="6" height="30" fill="url(#whiteGradDivided)"/>
<rect x="211" y="210" width="6" height="30" fill="url(#whiteGradDivided)"/>
<!-- Edge line -->
<rect x="267" y="0" width="3" height="240" fill="#fff" opacity="0.6"/>

<!-- Northbound cars (left side, going up) -->
<g transform="translate(20, 170)">
  <rect x="0" y="0" width="35" height="55" rx="7" fill="#2563eb" stroke="#1e40af" stroke-width="2"/>
  <rect x="4" y="4" width="27" height="18" fill="#87ceeb" opacity="0.7"/>
  <circle cx="8" cy="45" r="5" fill="#1a1a1a"/>
  <circle cx="27" cy="45" r="5" fill="#1a1a1a"/>
  <circle cx="8" cy="13" r="5" fill="#1a1a1a"/>
  <circle cx="27" cy="13" r="5" fill="#1a1a1a"/>
</g>
<g transform="translate(75, 140)">
  <rect x="0" y="0" width="35" height="55" rx="7" fill="#16a34a" stroke="#15803d" stroke-width="2"/>
  <rect x="4" y="4" width="27" height="18" fill="#87ceeb" opacity="0.7"/>
  <circle cx="8" cy="45" r="5" fill="#1a1a1a"/>
  <circle cx="27" cy="45" r="5" fill="#1a1a1a"/>
  <circle cx="8" cy="13" r="5" fill="#1a1a1a"/>
  <circle cx="27" cy="13" r="5" fill="#1a1a1a"/>
</g>

<!-- Southbound cars (right side, going down) -->
<g transform="translate(172, 30)">
  <rect x="0" y="0" width="35" height="55" rx="7" fill="#dc2626" stroke="#991b1b" stroke-width="2"/>
  <rect x="4" y="35" width="27" height="16" fill="#87ceeb" opacity="0.7"/>
  <circle cx="8" cy="10" r="5" fill="#1a1a1a"/>
  <circle cx="27" cy="10" r="5" fill="#1a1a1a"/>
  <circle cx="8" cy="42" r="5" fill="#1a1a1a"/>
  <circle cx="27" cy="42" r="5" fill="#1a1a1a"/>
</g>
<g transform="translate(225, 60)">
  <rect x="0" y="0" width="35" height="55" rx="7" fill="#ec4899" stroke="#db2777" stroke-width="2"/>
  <rect x="4" y="35" width="27" height="16" fill="#87ceeb" opacity="0.7"/>
  <circle cx="8" cy="10" r="5" fill="#1a1a1a"/>
  <circle cx="27" cy="10" r="5" fill="#1a1a1a"/>
  <circle cx="8" cy="42" r="5" fill="#1a1a1a"/>
  <circle cx="27" cy="42" r="5" fill="#1a1a1a"/>
</g>
</svg>
