<?xml version="1.0" encoding="UTF-8"?>
<svg xmlns="http://www.w3.org/2000/svg" width="160" height="200" viewBox="0 0 160 200" role="img" aria-label="Lane turn arrow with car in position">
<defs>
  <pattern id="asphalt5" x="0" y="0" width="4" height="4" patternUnits="userSpaceOnUse">
    <rect width="4" height="4" fill="#2d2d2d"/>
    <circle cx="1" cy="1" r="0.3" fill="#3a3a3a"/>
    <circle cx="3" cy="2" r="0.4" fill="#252525"/>
    <circle cx="2" cy="3.5" r="0.3" fill="#323232"/>
  </pattern>
  <filter id="shadow">
    <feGaussianBlur in="SourceAlpha" stdDeviation="2"/>
    <feOffset dx="1" dy="2" result="offsetblur"/>
    <feMerge>
      <feMergeNode/>
      <feMergeNode in="SourceGraphic"/>
    </feMerge>
  </filter>
</defs>
<!-- Asphalt surface -->
<rect width="160" height="200" fill="url(#asphalt5)"/>
<!-- White edge lines -->
<rect x="10" y="0" width="3" height="200" fill="#fff" opacity="0.6"/>
<rect x="147" y="0" width="3" height="200" fill="#fff" opacity="0.6"/>
<!-- Large white turn arrow (pointing up and right) with shadow -->
<g filter="url(#shadow)">
  <path d="M70 150 L70 70 L85 70 L85 55 L105 55 L105 40 L130 60 L105 80 L105 70 L85 70 L85 150 Z" fill="#f5f5f5" stroke="#ddd" stroke-width="2"/>
</g>
<!-- Car in lane following arrow (going up) -->
<g transform="translate(60, 140)">
  <rect x="0" y="0" width="40" height="60" rx="8" fill="#2563eb" stroke="#1e40af" stroke-width="2"/>
  <rect x="5" y="5" width="30" height="20" fill="#87ceeb" opacity="0.7"/>
  <circle cx="10" cy="50" r="6" fill="#1a1a1a"/>
  <circle cx="30" cy="50" r="6" fill="#1a1a1a"/>
  <circle cx="10" cy="15" r="6" fill="#1a1a1a"/>
  <circle cx="30" cy="15" r="6" fill="#1a1a1a"/>
</g>
</svg>
