<?xml version="1.0" encoding="UTF-8"?>
<svg xmlns="http://www.w3.org/2000/svg" width="200" height="240" viewBox="0 0 200 240" role="img" aria-label="White lane line separating same-direction lanes">
<defs>
  <pattern id="asphalt4" x="0" y="0" width="4" height="4" patternUnits="userSpaceOnUse">
    <rect width="4" height="4" fill="#2d2d2d"/>
    <circle cx="1" cy="1" r="0.3" fill="#3a3a3a"/>
    <circle cx="3" cy="2" r="0.4" fill="#252525"/>
    <circle cx="2" cy="3.5" r="0.3" fill="#323232"/>
  </pattern>
  <linearGradient id="whiteGrad2" x1="0%" y1="0%" x2="100%" y2="0%">
    <stop offset="0%" style="stop-color:#ffffff;stop-opacity:1" />
    <stop offset="50%" style="stop-color:#f5f5f5;stop-opacity:1" />
    <stop offset="100%" style="stop-color:#e8e8e8;stop-opacity:1" />
  </linearGradient>
</defs>
<!-- Asphalt road surface (wider for multiple lanes) -->
<rect width="200" height="240" fill="url(#asphalt4)"/>
<!-- White edge lines -->
<rect x="10" y="0" width="3" height="240" fill="#fff" opacity="0.6"/>
<rect x="187" y="0" width="3" height="240" fill="#fff" opacity="0.6"/>
<!-- White lane divider (vertical) -->
<rect x="96" y="0" width="8" height="240" fill="url(#whiteGrad2)"/>
<!-- Car in left lane (going up) -->
<g transform="translate(30, 170)">
  <rect x="0" y="0" width="40" height="60" rx="8" fill="#2563eb" stroke="#1e40af" stroke-width="2"/>
  <rect x="5" y="5" width="30" height="20" fill="#87ceeb" opacity="0.7"/>
  <circle cx="10" cy="50" r="6" fill="#1a1a1a"/>
  <circle cx="30" cy="50" r="6" fill="#1a1a1a"/>
  <circle cx="10" cy="15" r="6" fill="#1a1a1a"/>
  <circle cx="30" cy="15" r="6" fill="#1a1a1a"/>
</g>
<!-- Car in right lane (going up) -->
<g transform="translate(130, 140)">
  <rect x="0" y="0" width="40" height="60" rx="8" fill="#16a34a" stroke="#15803d" stroke-width="2"/>
  <rect x="5" y="5" width="30" height="20" fill="#87ceeb" opacity="0.7"/>
  <circle cx="10" cy="50" r="6" fill="#1a1a1a"/>
  <circle cx="30" cy="50" r="6" fill="#1a1a1a"/>
  <circle cx="10" cy="15" r="6" fill="#1a1a1a"/>
  <circle cx="30" cy="15" r="6" fill="#1a1a1a"/>
</g>
</svg>
